<?xml version="1.0" encoding="utf-8"?>
<!-- Generator: Adobe Illustrator 23.0.3, SVG Export Plug-In . SVG Version: 6.00 Build 0)  -->
<svg version="1.1" id="Layer_1" xmlns="http://www.w3.org/2000/svg" xmlns:xlink="http://www.w3.org/1999/xlink" x="0px" y="0px"
	 viewBox="0 0 500 500" style="enable-background:new 0 0 500 500;" xml:space="preserve">
<style type="text/css">
	.st0{fill:url(#SVGID_2_);}
	.st1{fill:#FFFFFF;}
</style>
<linearGradient id="SVGID_2_" gradientUnits="userSpaceOnUse" x1="-0.1974" y1="501.7677" x2="501.8026" y2="-0.2323">
	<stop  offset="0" style="stop-color:#330C80"/>
	<stop  offset="0.2235" style="stop-color:#6221E7"/>
	<stop  offset="0.7877" style="stop-color:#49C3E8"/>
	<stop  offset="1" style="stop-color:#87EBFF"/>
</linearGradient>
<rect x="-0.2" y="-0.2" class="st0" width="502" height="502"/>
<g>
	<g>
		<path class="st1" d="M183.1,229.7h12.6v6c4.1-4.9,9.9-6.9,15.9-6.9c13.7,0,22.5,11.5,22.5,25.7c0,14.4-8.9,25.9-22.7,25.9
			c-5.8,0-11.4-2.3-15-6.7v20h-13.3V229.7z M220.5,254.6c0-7.9-5.1-13.5-12.3-13.5c-6.8,0-11.8,5.6-11.8,13.5
			c0,7.9,5,13.5,11.8,13.5C215.4,268.1,220.5,262.4,220.5,254.6"/>
		<path class="st1" d="M241.3,254.6c0-14.3,8.7-25.8,22.5-25.8c5.8,0,11.9,2.3,15.5,7.1v-6.1h13v49.7h-13v-6
			c-3.5,4.8-9.7,6.9-15.5,6.9C250,280.4,241.3,268.9,241.3,254.6 M278.9,254.6c0-7.7-5-13.5-11.8-13.5c-7.1,0-12.3,5.8-12.3,13.5
			c0,7.9,5.2,13.5,12.3,13.5C274,268.1,278.9,262.5,278.9,254.6"/>
		<path class="st1" d="M300.9,254.6c0-14.4,11.7-25.8,26.5-25.8c6.9,0,12.8,2.3,17.8,6.4l-8.1,9.3c-2.3-2.1-5.5-3.4-9.5-3.4
			c-7.7,0-13.3,5.7-13.3,13.5c0,7.7,5.3,13.5,13.7,13.5c4.2,0,8.3-1.6,10.8-4.1l7.1,9.9c-4.8,4.1-11.4,6.5-18.6,6.5
			C312.6,280.4,300.9,269,300.9,254.6"/>
		<path class="st1" d="M356.2,263.4v-23H349v-10.7h7.3v-9.5l13.3-3v12.5h13.7v10.7h-13.7v22.8c0,4.3,2.1,5.7,4.5,5.7
			c3.2,0,6-1.8,6.4-2.1l3.8,9.8c-3,2-7.3,3.8-12.6,3.8C361.6,280.4,356.2,274.6,356.2,263.4"/>
		<path class="st1" d="M389.4,215.8c0-4.4,3.6-7.9,7.9-7.9c4.4,0,7.9,3.6,7.9,7.9c0,4.3-3.6,7.9-7.9,7.9
			C393,223.6,389.4,220.1,389.4,215.8 M390.7,229.7H404v49.7h-13.3V229.7z"/>
		<path class="st1" d="M412.7,254.6c0-14.4,11.7-25.8,26.5-25.8c6.9,0,12.8,2.3,17.8,6.4l-8.1,9.3c-2.3-2.1-5.5-3.4-9.5-3.4
			c-7.7,0-13.3,5.7-13.3,13.5c0,7.7,5.3,13.5,13.7,13.5c4.2,0,8.3-1.6,10.8-4.1l7.1,9.9c-4.8,4.1-11.4,6.5-18.6,6.5
			C424.4,280.4,412.7,269,412.7,254.6"/>
	</g>
	<g>
		<g>
			<path id="SVGID_1_" class="st1" d="M51.5,280.8V269c0-4.9,4-8.9,8.9-8.9h11.9c4.9,0,8.9,4,8.9,8.9v11.8c0,4.9-4,8.9-8.9,8.9H60.4
				C55.5,289.7,51.5,285.7,51.5,280.8 M51.5,244.7c0-4.9,4-8.9,8.9-8.9h36.1c4.9,0,8.9,4,8.9,8.9v36.1c0,4.9-4,8.9-8.9,8.9H86.2
				c1.6-2.6,2.6-5.6,2.6-8.9V269c0-9.1-7.4-16.6-16.6-16.6H60.4c-3.3,0-6.3,1-8.9,2.6V244.7z M51.5,220.7c0-4.9,4-8.9,8.9-8.9h60.1
				c4.9,0,8.9,4,8.9,8.9v60.1c0,4.9-4,8.9-8.9,8.9h-10c1.6-2.6,2.6-5.6,2.6-8.9v-36.1c0-9.1-7.4-16.6-16.6-16.6H60.4
				c-3.3,0-6.3,1-8.9,2.6V220.7z M60.4,204.2c-9.1,0-16.6,7.4-16.6,16.6v24V269v11.8c0,9.1,7.4,16.6,16.6,16.6h11.9h24.2h24
				c9.1,0,16.6-7.4,16.6-16.6v-60.1c0-9.1-7.4-16.6-16.6-16.6H60.4z"/>
		</g>
	</g>
</g>
</svg>
